<svg width="26" height="34" viewBox="0 0 26 34" fill="none" xmlns="http://www.w3.org/2000/svg">
<path d="M11.6189 17.0246L0.568906 5.86836C-0.194844 5.09727 -0.194844 3.85039 0.568906 3.0875L2.40516 1.23359C3.16891 0.4625 4.40391 0.4625 5.15953 1.23359L12.992 9.14141L20.8245 1.23359C21.5883 0.4625 22.8233 0.4625 23.5789 1.23359L25.4314 3.0793C26.1952 3.85039 26.1952 5.09727 25.4314 5.86016L14.3814 17.0164C13.6177 17.7957 12.3827 17.7957 11.6189 17.0246ZM14.3814 32.7746L25.4314 21.6184C26.1952 20.8473 26.1952 19.6004 25.4314 18.8375L23.5951 16.9836C22.8314 16.2125 21.5964 16.2125 20.8408 16.9836L13.0002 24.8832L5.16765 16.9754C4.4039 16.2043 3.16891 16.2043 2.41328 16.9754L0.568906 18.8293C-0.194844 19.6004 -0.194844 20.8473 0.568906 21.6102L11.6189 32.7664C12.3827 33.5457 13.6177 33.5457 14.3814 32.7746Z" fill="#EEEEEE"/>
</svg>
