<svg width="32" height="31" viewBox="0 0 32 31" fill="none" xmlns="http://www.w3.org/2000/svg">
<path d="M26.3374 19.375H24.3999C24.143 19.375 23.8966 19.4771 23.7149 19.6587C23.5332 19.8404 23.4312 20.0868 23.4312 20.3438V27.125H4.05615V7.75H12.7749C13.0318 7.75 13.2782 7.64794 13.4599 7.46626C13.6416 7.28458 13.7437 7.03818 13.7437 6.78125V4.84375C13.7437 4.58682 13.6416 4.34042 13.4599 4.15874C13.2782 3.97706 13.0318 3.875 12.7749 3.875H3.0874C2.31662 3.875 1.5774 4.18119 1.03237 4.72622C0.487346 5.27125 0.181152 6.01046 0.181152 6.78125L0.181152 28.0938C0.181152 28.8645 0.487346 29.6038 1.03237 30.1488C1.5774 30.6938 2.31662 31 3.0874 31H24.3999C25.1707 31 25.9099 30.6938 26.4549 30.1488C27 29.6038 27.3062 28.8645 27.3062 28.0938V20.3438C27.3062 20.0868 27.2041 19.8404 27.0224 19.6587C26.8407 19.4771 26.5943 19.375 26.3374 19.375ZM29.728 0H21.978C20.6841 0 20.0375 1.56877 20.9487 2.48242L23.1121 4.64576L8.35498 19.3974C8.21951 19.5324 8.11202 19.6928 8.03868 19.8694C7.96534 20.0461 7.92758 20.2354 7.92758 20.4267C7.92758 20.618 7.96534 20.8073 8.03868 20.984C8.11202 21.1606 8.21951 21.321 8.35498 21.456L9.72758 22.8262C9.86258 22.9616 10.023 23.0691 10.1996 23.1425C10.3763 23.2158 10.5656 23.2536 10.7569 23.2536C10.9481 23.2536 11.1375 23.2158 11.3141 23.1425C11.4908 23.0691 11.6512 22.9616 11.7862 22.8262L26.536 8.07211L28.6987 10.2324C29.6069 11.1406 31.1812 10.5049 31.1812 9.20312V1.45312C31.1812 1.06773 31.0281 0.698124 30.7555 0.42561C30.483 0.153097 30.1134 0 29.728 0V0Z" fill="#EEEEEE"/>
</svg>
